<?xml version="1.0" encoding="UTF-8"?>
<svg id="Layer_1" data-name="Layer 1" xmlns="http://www.w3.org/2000/svg" viewBox="0 0 500 500">
  <defs>
    <style>
      .cls-1 {
        fill: #20211f;
        stroke-width: 0px;
      }
    </style>
  </defs>
  <path class="cls-1" d="m432.78,195.11c-15.38-21.25-46.31-25.51-69.89-17.39-21.11,7.27-39.7,22.02-56.27,37.03-9.15-8.5-18.1-17.23-26.39-26.59-3.63-4.1-7.17-8.31-10.4-12.74-1.68-2.31-5.5-6.43-5.84-9.37-.15-1.27,1.18-3.04,2.05-4.26,3-4.24,6.27-7.98,8.75-12.62,4.81-9.02,9.11-19.84,7.15-30.18-2.24-11.89-12.91-19.11-24.35-20.7-11.13-1.55-20.17,2.17-29.32,7.92-8.86,5.57-14.32,13.08-14.24,23.96.12,14.61,8.95,25.84,16.4,37.61.94,1.48,1.48,1.98,1.21,3.54-.24,1.39-1.7,3.06-2.43,4.22-3.16,4.99-6.92,9.61-10.75,14.09-7.45,8.7-15.51,16.84-23.81,24.72-18.43-17.16-39.57-36.03-65.31-39.88-21.62-3.23-44.43,3.47-60.39,18.62-19.97,18.96-19.63,52.84-.56,72.3,16.66,16.99,44.13,18.96,65.95,12.29,19.92-6.09,38.63-19.01,55.12-32.2,12.92,12.13,25.06,25.05,38.4,36.74.97.85,2.9,2.09,2.76,2.97-.13.79-3.23,2.67-3.98,3.29-3.11,2.56-6.24,5.09-9.39,7.61-25.1,20.07-51.03,39.33-78.18,56.55-14.64,9.29-30.73,16.11-45.15,25.66-5.7,3.78-9.31,10.18-4.59,16.43,4.76,6.29,13.33,2.37,18.97-.61,21.19-11.19,41.66-24.6,61.54-37.93,26.45-17.74,51.27-38.14,75.48-58.85,24.98,21.43,51.03,42.12,78.16,60.77,13.21,9.09,26.74,17.72,40.41,26.1,7.84,4.81,17.8,12.78,27.26,13.54,1.68.13,3.38-.25,5.03-.93-.01,0-.02.02-.04.03.02-.01.04-.02.06-.04,2.82-1.15,5.49-3.12,7.7-4.76.03-.02.05-.04.07-.06.02-.01.04-.03.06-.04,0,0-.02,0-.03.01,5.63-4.26,6.41-11.71,1.09-16.64-5.72-5.3-14.81-8.19-21.62-11.97-7.5-4.17-14.87-8.58-22.14-13.14-26.38-16.54-51.61-34.95-76.08-54.19-4.1-3.22-8.17-6.47-12.22-9.76-1.42-1.16-7.53-5.27-7.3-6.54.34-1.87,6.36-5.59,7.56-6.67,4.1-3.72,8.11-7.54,12.07-11.41,5.23-5.1,10.34-10.34,15.58-15.44,18.09,14.91,38.78,30.22,62.39,34.06,11.45,1.87,24.01,1.73,35.13-1.75,8.15-2.55,15.96-7.31,22.84-12.34,21.9-16.02,27.45-48.98,11.46-71.08Zm-88.2,11.01c1.98-1.26,3.79-2.39,5.51-3.43,5.31-2.86,10.87-5.02,16.63-6.07,15.58-2.84,33.39.79,43.12,14.3,9.29,12.89,8.56,36.04-6.05,45.26-10.67,6.73-27.43,4.46-38.56.91-10.56-3.37-20.42-8.79-29.5-15.08-5.14-3.56-10.02-7.45-14.74-11.54-2.2-1.91-3.01-1.81-.82-4.01,5-5,10.55-10.21,16.54-14.9,3.05-2.24,5.79-4.13,7.86-5.44Zm-108.43-78.55c.19-2.94,1.17-5.59,2.89-7.77,5.35-1.44,11.47-.92,15.96,2.31,5.03,3.62,5.78,9.17,5.3,14.97-.64,7.69-4.67,14.29-9.8,19.88-8.35-8.01-14.41-17.44-14.34-29.39,0,.1-.04.2-.1.31.05-.1.09-.2.1-.31Zm37.57,89.94c3.24,3.32,6.48,6.63,9.73,9.93.51.51,1.01,1.03,1.52,1.54,1.9,1.93,2.4,1.71.39,3.7-11.68,11.55-22.87,23.58-34.62,35.05-7.23-6.8-14.4-13.65-21.46-20.62-5.32-5.24-10.58-10.54-15.79-15.89-.54-.55-4.05-3.31-4.33-4.47-.25-1.02.84-1.68,1.78-2.64,11.65-11.81,23.17-23.77,34.58-35.81,9.34,9.79,18.74,19.53,28.19,29.21Zm-182.05-17.82c.13-.14.25-.26.36-.37-.09,0-.17-.03-.26-.07.21-.1.44-.19.65-.29.42-.36.56-.36.53-.23.14-.06.28-.13.42-.18.7-.3,1.41-.58,2.14-.83,4.86-1.71,10.03-2.42,15.17-2.43,9.18-.01,17.99,2.21,26.07,6.52,9.16,4.89,17.73,10.94,25.83,17.42,4.29,3.44,8.44,7.04,12.36,10.9,2.08,2.05,3.18,2.17.76,4.27-14.74,12.87-31.8,24-51.89,25.32-13.59.89-28.48-3.97-36.9-15.13-9.59-12.72-7.99-31.58,2.84-43.02.62-.65,1.31-1.23,1.93-1.88Zm61.14,167.49c-9.52,6.27-19.22,12.24-29.16,17.87,7.57-4.47,18.06-10.78,29.16-17.87Z"/>
  <path class="cls-1" d="m92.95,198.72c-.18.07-.35.15-.53.23-.11.1-.24.21-.39.36.46.03.87-.41.92-.6Z"/>
</svg>